<?xml version="1.0" encoding="utf-8"?>
<!-- Generator: Adobe Illustrator 13.0.2, SVG Export Plug-In . SVG Version: 6.00 Build 14948)  -->
<!DOCTYPE svg PUBLIC "-//W3C//DTD SVG 1.1//EN" "http://www.w3.org/Graphics/SVG/1.1/DTD/svg11.dtd">
<svg version="1.1" id="Layer_1" xmlns="http://www.w3.org/2000/svg" xmlns:xlink="http://www.w3.org/1999/xlink" x="0px" y="0px"
	 width="420.274px" height="404.389px" viewBox="0 0 420.274 404.389" enable-background="new 0 0 420.274 404.389"
	 xml:space="preserve">
<path fill="#FFFFFF" d="M120.842,3.166c28.662-8.438,60.983,18.412,72.191,59.973s-2.942,82.093-31.604,90.531
	c-28.662,8.438-60.983-18.413-72.191-59.973C78.029,52.136,92.179,11.604,120.842,3.166z"/>
<path fill="#FFFFFF" d="M291.631,0.807c29.684,6.121,46.902,45.398,38.463,87.729c-8.439,42.33-39.348,71.684-69.03,65.563
	c-29.683-6.121-46.903-45.398-38.463-87.728C231.04,24.041,261.948-5.313,291.631,0.807z"/>
<path fill="#FFFFFF" d="M393.526,124.635c26.166,11.492,34.572,50.752,18.773,87.69c-15.799,36.938-49.816,57.566-75.982,46.074
	s-34.572-50.754-18.775-87.69C333.34,133.771,367.36,113.143,393.526,124.635z"/>
<path fill="#FFFFFF" d="M22.618,134.127c24.716-13.361,59.515,4.737,77.725,40.424c18.21,35.687,12.937,75.45-11.779,88.813
	c-24.715,13.361-59.515-4.738-77.726-40.426C-7.371,187.252-2.097,147.488,22.618,134.127z"/>
<path fill="#FFFFFF" d="M89.652,391.022c0,0-19.687-18.141-4.303-61.684c15.384-43.543,45.289-98.01,93.83-113.122
	c48.541-15.114,91.131-9.178,148.87,77.651c57.742,86.828,17.338,112.341-16.133,110.421c-33.469-1.921-48.967-27.319-97.276-24.129
	C166.329,383.351,131.94,423.709,89.652,391.022z"/>
</svg>
